<svg xmlns="http://www.w3.org/2000/svg" viewBox="0 0 16 14"><title>资源 2</title><g id="图层_2" data-name="图层 2"><g id="添加目录"><path d="M16,4.15V5.5a.5.5,0,0,1-1,0V4.15a.58.58,0,0,0-.59-.61H.88v8.84A.6.6,0,0,0,1.5,13h6a.5.5,0,0,1,0,1h-6A1.49,1.49,0,0,1,0,12.49V2.65H14.41C15.29,2.65,16,3,16,4.15Z"/><path d="M7.51.88V2.65H.88V.88H7.51m0-.88H.88A.84.84,0,0,0,0,.88V2.83c0,.44.35.71.88.71H7.51a.8.8,0,0,0,.88-.71V.88A.89.89,0,0,0,7.51,0Z"/><path d="M15.5,10H13V7.5a.5.5,0,0,0-1,0V10H9.5a.5.5,0,0,0,0,1H12v2.5a.5.5,0,0,0,1,0V11h2.5a.5.5,0,0,0,0-1Z"/></g></g></svg>