<svg xmlns="http://www.w3.org/2000/svg" viewBox="0 0 14.58 14.97"><defs><style>.cls-1{fill:#040000;}</style></defs><title>资源 28</title><g id="图层_2" data-name="图层 2"><g id="图层_51" data-name="图层 51"><path class="cls-1" d="M14.32,10.38,12,9.07l2.32-1.25a.5.5,0,0,0,0-.88L12.16,5.75,14.31,4.6a.5.5,0,0,0,0-.88L7.52.06A.5.5,0,0,0,7,.06L.26,3.71a.5.5,0,0,0,0,.88L2.38,5.74.25,6.94a.5.5,0,0,0,0,.88L2.65,9.1.27,10.37a.5.5,0,0,0,0,.88l6.79,3.65a.5.5,0,0,0,.48,0l6.79-3.65a.5.5,0,0,0,0-.88Zm-7-9.31L13,4.16,10.91,5.29l-.07,0L7.29,7.24,1.56,4.15ZM3.43,6.3,7.05,8.25a.5.5,0,0,0,.48,0l3.59-1.93L13,7.37,7.29,10.46,1.54,7.37Zm3.86,7.6L1.56,10.82,3.71,9.68l3.34,1.8a.5.5,0,0,0,.47,0l3.42-1.84L13,10.81Zm0,0"/></g></g></svg>