<svg xmlns="http://www.w3.org/2000/svg" viewBox="0 0 15 15"><title>资源 29</title><g id="图层_2" data-name="图层 2"><g id="图层"><path d="M12.61,0H2.5A2.5,2.5,0,0,0,0,2.5V8.61L6.39,15H12.5A2.5,2.5,0,0,0,15,12.5V2.39A2.52,2.52,0,0,0,12.61,0ZM6.06,13.33l-4.4-4.4H4.19a1.84,1.84,0,0,1,1.87,1.87Zm8-1.14a2,2,0,0,1-1.87,1.87H7V10.5A2.5,2.5,0,0,0,4.5,8H.94V2.81A2.05,2.05,0,0,1,2.81.94a4.93,4.93,0,0,1,.67,0c.36,0,.82,0,1.35,0,2.74,0,7.19,0,7.36,0h.05a1.82,1.82,0,0,1,1.28.54,1.84,1.84,0,0,1,.54,1.29Z"/></g></g></svg>