<?xml version="1.0" encoding="utf-8"?>
<!-- Generator: Adobe Illustrator 16.0.0, SVG Export Plug-In . SVG Version: 6.00 Build 0)  -->
<!DOCTYPE svg PUBLIC "-//W3C//DTD SVG 1.1 Basic//EN" "http://www.w3.org/Graphics/SVG/1.1/DTD/svg11-basic.dtd">
<svg version="1.1" baseProfile="basic" id="图层_1"
	 xmlns="http://www.w3.org/2000/svg" xmlns:xlink="http://www.w3.org/1999/xlink" x="0px" y="0px" width="16px" height="16px"
	 viewBox="0 0 16 16" xml:space="preserve">
<g>
	<path fill="#040000" d="M9.5,4H12v2.5C12,6.776,12.224,7,12.5,7S13,6.776,13,6.5V4h2.5C15.776,4,16,3.776,16,3.5S15.776,3,15.5,3
		H13V0.5C13,0.224,12.776,0,12.5,0S12,0.224,12,0.5V3H9.5C9.224,3,9,3.224,9,3.5S9.224,4,9.5,4z"/>
	<path fill="#040000" d="M2,1h6c0.276,0,0.5-0.224,0.5-0.5S8.276,0,8,0H2C0.896,0,0,0.896,0,2v10c0,1.104,0.896,2,2,2v-1
		c-0.553,0-1-0.447-1-1v-1h1v-1H1V2C1,1.447,1.447,1,2,1z"/>
	<path fill="#040000" d="M5.5,10h4C9.776,10,10,9.776,10,9.5S9.776,9,9.5,9h-4C5.224,9,5,9.224,5,9.5S5.224,10,5.5,10z"/>
	<path fill="#040000" d="M5.5,5C5.224,5,5,5.224,5,5.5S5.224,6,5.5,6h3C8.776,6,9,5.776,9,5.5S8.776,5,8.5,5H5.5z"/>
	<path fill="#040000" d="M5.5,8h3C8.776,8,9,7.776,9,7.5S8.776,7,8.5,7h-3C5.224,7,5,7.224,5,7.5S5.224,8,5.5,8z"/>
	<path fill="#040000" d="M15.5,7.469c-0.276,0-0.5,0.224-0.5,0.5C15,7.98,15.006,7.989,15.006,8H15v4H4V4c0-0.553,0.447-1,1-1h2
		V2.994C7.011,2.995,7.02,3,7.031,3c0.276,0,0.5-0.224,0.5-0.5S7.308,2,7.031,2C7.02,2,7.011,2.005,7,2.006V2H5C3.896,2,3,2.896,3,4
		v10c0,1.104,0.896,2,2,2h9c1.104,0,2-0.896,2-2V8h-0.006C15.994,7.989,16,7.98,16,7.969C16,7.692,15.776,7.469,15.5,7.469z M15,14
		c0,0.553-0.447,1-1,1H5c-0.553,0-1-0.447-1-1v-1h11V14z"/>
</g>
</svg>
