<svg xmlns="http://www.w3.org/2000/svg" xmlns:xlink="http://www.w3.org/1999/xlink" viewBox="0 0 14.97 14.97"><defs><style>.cls-1{fill:none;}.cls-2{clip-path:url(#clip-path);}</style><clipPath id="clip-path" transform="translate(0 -0.01)"><rect class="cls-1" width="14.98" height="15"/></clipPath></defs><title>资源 27</title><g id="图层_2" data-name="图层 2"><g id="图层_54" data-name="图层 54"><g class="cls-2"><path d="M14.14,1.58c0-.41-3-.74-6.65-.74S.83,1.17.83,1.58V4.26c0,.41,3,.74,6.65.74s6.65-.33,6.65-.74ZM15,1V4.79c0,.57-3.35,1-7.49,1S0,5.37,0,4.79V1C0,.47,3.35,0,7.49,0S15,.47,15,1Zm0,4.58V9.37c0,.57-3.35,1-7.49,1S0,9.94,0,9.37V5.62c0,.57,3.35,1,7.49,1S15,6.2,15,5.62Zm-.83,1.46c0,.3-3,.54-6.65.54S.83,7.38.83,7.08V9c0,.3,3,.54,6.65.54s6.65-.24,6.65-.54ZM8,11.24a4.36,4.36,0,0,0-.12.74H6.76c-3.29,0-6-.28-6-.63v2.28c0,.35,2.67.63,6,.63l1.6,0a4.4,4.4,0,0,0,.46.72L7.49,15C3.35,15,0,14.52,0,13.94V10.2c0,.57,3.35,1,7.49,1Zm1.54,1.25,1.66-1.66v3.33Zm1.66-.83H15v1.66H11.23Zm0,0" transform="translate(0 -0.01)"/></g></g></g></svg>